Coordinates
version=1
nRows=17
nColumns=40
inDegrees=yes

Units are S.I. units (second, meters, Newtons, ...)
If the header above contains a line with 'inDegrees', this indicates whether rotational values are in degrees (yes) or radians (no).

endheader
time	pelvis_tilt	pelvis_list	pelvis_rotation	pelvis_tx	pelvis_ty	pelvis_tz	hip_flexion_r	hip_adduction_r	hip_rotation_r	knee_angle_r	knee_angle_r_beta	ankle_angle_r	subtalar_angle_r	mtp_angle_r	hip_flexion_l	hip_adduction_l	hip_rotation_l	knee_angle_l	knee_angle_l_beta	ankle_angle_l	subtalar_angle_l	mtp_angle_l	lumbar_extension	lumbar_bending	lumbar_rotation	arm_flex_r	arm_add_r	arm_rot_r	elbow_flex_r	pro_sup_r	wrist_flex_r	wrist_dev_r	arm_flex_l	arm_add_l	arm_rot_l	elbow_flex_l	pro_sup_l	wrist_flex_l	wrist_dev_l
      8.05000000	    -35.42255775	      5.69373292	      6.80065071	     -0.39575748	      0.66966014	     -1.01201853	     28.54327748	     -9.03166149	     -1.47622257	     85.99925827	      1.50097021	    -11.39483450	      0.00000000	      0.00000000	     89.09308874	      4.81294554	    -15.04228595	     85.70940125	      1.49591125	     22.08229525	      0.00000000	      0.00000000	     -6.23666916	    -11.74270870	     -5.07027010	     89.93942566	    -14.41945910	      3.98496269	     42.37025872	     70.08508494	      0.00000000	      0.00000000	     89.94647972	    -20.21661094	      9.10065338	     50.45129748	     73.05216324	      0.00000000	      0.00000000
      8.05500000	    -35.43586376	      5.76810904	      6.81469026	     -0.39567037	      0.66947357	     -1.01198850	     28.51326338	     -9.09831709	     -1.42227569	     85.95308475	      1.50016433	    -11.44166137	      0.00000000	      0.00000000	     89.08661596	      4.83159942	    -15.12195414	     85.70510631	      1.49583629	     22.13041734	      0.00000000	      0.00000000	     -6.26246314	    -11.83429250	     -5.10293208	     89.93952904	    -14.40851337	      4.12243482	     42.39753221	     68.70734353	      0.00000000	      0.00000000	     89.94653198	    -20.21749900	      9.20712320	     50.46934238	     71.56241414	      0.00000000	      0.00000000
      8.06000000	    -35.52110239	      5.82038859	      6.83264112	     -0.39567508	      0.66919400	     -1.01199766	     28.59449276	     -9.15384146	     -1.36434911	     85.92928584	      1.49974896	    -11.70571900	      0.00000000	      0.00000000	     89.16246540	      4.83229320	    -15.22010559	     85.69812721	      1.49571448	     22.18995383	      0.00000000	      0.00000000	     -6.21691462	    -11.89516818	     -5.11739959	     89.93961140	    -14.49304615	      3.46384307	     42.30914802	     76.92636872	      0.00000000	      0.00000000	     89.94651209	    -20.33202666	      8.51275063	     50.31785326	     81.00718041	      0.00000000	      0.00000000
      8.06500000	    -35.50028418	      5.77805417	      6.88355867	     -0.39560159	      0.66894150	     -1.01197299	     28.49553036	     -9.11888484	     -1.42722031	     85.89936056	      1.49922667	    -11.47289507	      0.00000000	      0.00000000	     89.19808147	      4.86792916	    -15.16705256	     85.79640967	      1.49742984	     22.11906724	      0.00000000	      0.00000000	     -6.25899146	    -11.86414335	     -5.13396174	     89.93973992	    -14.46406959	      3.49788089	     42.32586616	     74.66390533	      0.00000000	      0.00000000	     89.94658166	    -20.18449097	      8.53043451	     50.32355121	     78.25747698	      0.00000000	      0.00000000
      8.07000000	    -35.58549445	      5.81562057	      6.87921091	     -0.39563808	      0.66864306	     -1.01193515	     28.59168046	     -9.15043386	     -1.35033074	     85.88365743	      1.49895260	    -11.80463919	      0.00000000	      0.00000000	     89.27267297	      4.84746066	    -15.24163351	     85.78867605	      1.49729486	     22.26532061	      0.00000000	      0.00000000	     -6.20672768	    -11.91847122	     -5.13995927	     89.93975382	    -14.52164119	      3.90642724	     42.42757368	     73.15988538	      0.00000000	      0.00000000	     89.94653365	    -20.30594001	      8.86012496	     50.47432838	     76.52664522	      0.00000000	      0.00000000
      8.07500000	    -35.62277819	      5.71598166	      6.97312036	     -0.39569627	      0.66834681	     -1.01197841	     28.55617906	     -9.07943240	     -1.45045821	     85.85850016	      1.49851352	    -11.55511882	      0.00000000	      0.00000000	     89.38099593	      4.91072871	    -15.14356649	     85.87109365	      1.49873332	     22.19044653	      0.00000000	      0.00000000	     -6.18676764	    -11.81278464	     -5.18365052	     89.93985444	    -14.46457758	      3.86703999	     42.46560036	     71.21486850	      0.00000000	      0.00000000	     89.94653090	    -20.16330633	      8.80803587	     50.44656799	     74.35738165	      0.00000000	      0.00000000
      8.08000000	    -35.64544539	      5.72492887	      6.99311292	     -0.39564201	      0.66814126	     -1.01195572	     28.53776693	     -9.07988096	     -1.43798660	     85.82719978	      1.49796722	    -11.48484082	      0.00000000	      0.00000000	     89.41802554	      4.91920361	    -15.15833153	     85.89783801	      1.49920009	     22.19648576	      0.00000000	      0.00000000	     -6.18308869	    -11.83049912	     -5.18193547	     89.93979551	    -14.44533069	      3.94723800	     42.49952191	     69.64163181	      0.00000000	      0.00000000	     89.94674870	    -20.11288502	      8.89684304	     50.44516593	     72.63711488	      0.00000000	      0.00000000
      8.08500000	    -35.66444552	      5.82957236	      6.96699675	     -0.39554128	      0.66804686	     -1.01190582	     28.53543801	     -9.16258898	     -1.30337401	     85.78179657	      1.49717479	    -11.70953832	      0.00000000	      0.00000000	     89.39057446	      4.90345343	    -15.27803130	     85.86659879	      1.49865487	     22.22990331	      0.00000000	      0.00000000	     -6.22015124	    -11.94901791	     -5.20255637	     89.94005527	    -14.50380809	      3.45357717	     42.38731869	     76.67563824	      0.00000000	      0.00000000	     89.94668414	    -20.26951761	      8.31373941	     50.38239913	     81.01445577	      0.00000000	      0.00000000
      8.09000000	    -35.67866091	      5.77264878	      7.01010101	     -0.39551414	      0.66773725	     -1.01189245	     28.49761991	     -9.12939442	     -1.37416300	     85.77968365	      1.49713791	    -11.51345214	      0.00000000	      0.00000000	     89.48400123	      4.92892833	    -15.20170703	     85.98908070	      1.50079258	     22.20599230	      0.00000000	      0.00000000	     -6.22001922	    -11.89982842	     -5.20648895	     89.94008850	    -14.46704932	      3.43970851	     42.44700147	     74.76167520	      0.00000000	      0.00000000	     89.94657826	    -20.13332352	      8.31086215	     50.39531872	     78.63393264	      0.00000000	      0.00000000
      8.09500000	    -35.69537817	      5.75206455	      7.03356757	     -0.39550831	      0.66759612	     -1.01184347	     28.48335140	     -9.06881006	     -1.33630227	     85.74953128	      1.49661165	    -11.45132059	      0.00000000	      0.00000000	     89.49905256	      4.93621776	    -15.19666299	     85.97950681	      1.50062548	     22.21155941	      0.00000000	      0.00000000	     -6.22257040	    -11.88279141	     -5.19355405	     89.94006352	    -14.45124405	      3.58985072	     42.46204918	     72.75039257	      0.00000000	      0.00000000	     89.94682903	    -20.05579171	      8.44695650	     50.38786571	     76.27766976	      0.00000000	      0.00000000
      8.10000000	    -35.70555676	      5.70174570	      7.04149340	     -0.39550869	      0.66736762	     -1.01183718	     28.46314653	     -9.02101806	     -1.33144310	     85.74105654	      1.49646374	    -11.38400580	      0.00000000	      0.00000000	     89.56955980	      4.95278625	    -15.11443723	     86.06813328	      1.50217231	     22.18787614	      0.00000000	      0.00000000	     -6.23504372	    -11.82354888	     -5.16637954	     89.94018369	    -14.46301543	      3.72109859	     42.57230223	     70.93018961	      0.00000000	      0.00000000	     89.94671271	    -20.01707173	      8.53856338	     50.45242973	     74.22850905	      0.00000000	      0.00000000
      8.10500000	    -35.74578833	      5.82989668	      7.01663593	     -0.39541358	      0.66729176	     -1.01182425	     28.48525375	     -9.09320659	     -1.15021544	     85.70170037	      1.49577685	    -11.65064898	      0.00000000	      0.00000000	     89.54249608	      4.94599395	    -15.26802800	     85.99450326	      1.50088722	     22.32557597	      0.00000000	      0.00000000	     -6.24419568	    -11.96869024	     -5.14237767	     89.93999506	    -14.57249863	      3.40066095	     42.48922199	     76.42969309	      0.00000000	      0.00000000	     89.94687037	    -20.12190535	      8.16684782	     50.44024270	     80.71361130	      0.00000000	      0.00000000
      8.11000000	    -35.77104156	      5.76070959	      7.05259443	     -0.39541193	      0.66706308	     -1.01180173	     28.45806576	     -9.01334486	     -1.16530307	     85.66424548	      1.49512313	    -11.48166120	      0.00000000	      0.00000000	     89.61358616	      4.95640405	    -15.20618849	     86.04915705	      1.50184111	     22.26763803	      0.00000000	      0.00000000	     -6.22026553	    -11.89920654	     -5.13074291	     89.94028554	    -14.54671996	      3.48309230	     42.54171833	     74.35996539	      0.00000000	      0.00000000	     89.94671193	    -20.04015473	      8.30091237	     50.38607533	     78.15014055	      0.00000000	      0.00000000
      8.11500000	    -35.79561895	      5.84057917	      7.02838719	     -0.39532390	      0.66689889	     -1.01178260	     28.48182631	     -9.08291066	     -1.07197158	     85.67121927	      1.49524485	    -11.64991561	      0.00000000	      0.00000000	     89.62975969	      4.96134135	    -15.27062818	     86.06866417	      1.50218157	     22.34914984	      0.00000000	      0.00000000	     -6.22730294	    -11.98726508	     -5.10674167	     89.94028867	    -14.58306674	      3.27107652	     42.53024482	     77.31097673	      0.00000000	      0.00000000	     89.94670298	    -20.12771322	      8.18074181	     50.41436453	     80.90818805	      0.00000000	      0.00000000
      8.12000000	    -35.82392088	      5.86555923	      7.02579866	     -0.39530983	      0.66671663	     -1.01178825	     28.48942236	     -9.09029582	     -0.98598787	     85.66922908	      1.49521012	    -11.68465382	      0.00000000	      0.00000000	     89.67205778	      4.98071198	    -15.27245460	     86.08091772	      1.50239544	     22.40501848	      0.00000000	      0.00000000	     -6.22476371	    -12.00998793	     -5.09713845	     89.94034273	    -14.57763425	      3.50674248	     42.59397093	     75.50340347	      0.00000000	      0.00000000	     89.94672211	    -20.15017139	      8.40883374	     50.47940864	     78.73348032	      0.00000000	      0.00000000
      8.12500000	    -35.82061162	      5.81561922	      7.06489565	     -0.39525170	      0.66649331	     -1.01178625	     28.43750848	     -9.05012222	     -1.03629042	     85.67339937	      1.49528290	    -11.46048328	      0.00000000	      0.00000000	     89.73743115	      5.00046457	    -15.22447113	     86.20391295	      1.50454211	     22.30221652	      0.00000000	      0.00000000	     -6.23808915	    -11.95930068	     -5.09743749	     89.94060243	    -14.54598884	      3.49532679	     42.63545542	     73.68974920	      0.00000000	      0.00000000	     89.94649430	    -20.03854508	      8.40194395	     50.49093472	     76.66790505	      0.00000000	      0.00000000
      8.13000000	    -35.85023560	      5.78327990	      7.07969581	     -0.39522522	      0.66630610	     -1.01179631	     28.41901130	     -8.99045291	     -0.99060120	     85.63271732	      1.49457286	    -11.40011613	      0.00000000	      0.00000000	     89.78137604	      5.02390162	    -15.17997295	     86.20990816	      1.50464675	     22.32518263	      0.00000000	      0.00000000	     -6.21490261	    -11.92698704	     -5.08304446	     89.94044591	    -14.53546062	      3.65084824	     42.63318533	     71.99969314	      0.00000000	      0.00000000	     89.94675840	    -20.00104291	      8.55383638	     50.48418234	     74.80685423	      0.00000000	      0.00000000
